<svg width="25" height="25" viewBox="0 0 25 25" fill="none" xmlns="http://www.w3.org/2000/svg">
<path d="M8.61755 10.1396V8.13965H6.61755V12.6396C6.61755 12.9157 6.39369 13.1396 6.11755 13.1396C5.84141 13.1396 5.61755 12.9157 5.61755 12.6396V7.13965H8.61755C8.61755 4.73593 10.5698 3.13965 12.6176 3.13965C14.6751 3.13965 16.6176 4.84521 16.6176 7.13965H19.6176V19.6396C19.6176 20.468 18.946 21.1396 18.1176 21.1396H13.1176C12.8415 21.1396 12.6176 20.9157 12.6176 20.6396C12.6176 20.3635 12.8415 20.1396 13.1176 20.1396H18.1176C18.3937 20.1396 18.6176 19.9157 18.6176 19.6396V8.13965H16.6176V10.1396H15.6176V8.13965H9.61755V10.1396H8.61755ZM12.6176 4.13965C11.0653 4.13965 9.61755 5.34337 9.61755 7.13965H15.6176C15.6176 5.43409 14.1601 4.13965 12.6176 4.13965Z" fill="#1F2026"/>
<path d="M8.11755 14.1396C8.39369 14.1396 8.61755 14.3635 8.61755 14.6396V17.1396H11.1176C11.3937 17.1396 11.6176 17.3635 11.6176 17.6396C11.6176 17.9157 11.3937 18.1396 11.1176 18.1396H8.61755V20.6396C8.61755 20.9157 8.39369 21.1396 8.11755 21.1396C7.84141 21.1396 7.61755 20.9157 7.61755 20.6396V18.1396H5.11755C4.84141 18.1396 4.61755 17.9157 4.61755 17.6396C4.61755 17.3635 4.84141 17.1396 5.11755 17.1396H7.61755V14.6396C7.61755 14.3635 7.84141 14.1396 8.11755 14.1396Z" fill="#1F2026"/>
</svg>
