<svg width="25" height="25" viewBox="0 0 25 25" fill="#1F2026" xmlns="http://www.w3.org/2000/svg">
<g clip-path="url(#clip0_1_26907)">
<path fill-rule="evenodd" clip-rule="evenodd" d="M16.765 0.871094C16.8644 2.13231 16.4668 3.39353 15.6614 4.36447C14.8759 5.34542 13.6927 5.90597 12.4399 5.89596C12.3603 4.66476 12.768 3.45359 13.5734 2.5327C14.3887 1.59179 15.5322 1.00122 16.765 0.871094ZM20.7468 8.29707C19.2982 9.18597 18.4091 10.7441 18.3891 12.4419C18.3891 14.3596 19.538 16.0874 21.3162 16.8365C20.9765 17.9351 20.4671 18.9838 19.7977 19.9227C18.9086 21.261 17.9696 22.5694 16.4811 22.5894C15.7727 22.604 15.296 22.4013 14.7999 22.1903C14.2816 21.9699 13.742 21.7404 12.8946 21.7404C11.9996 21.7404 11.4352 21.9762 10.8899 22.2039C10.4187 22.4007 9.96179 22.5916 9.31818 22.6193C7.8996 22.6793 6.82068 21.2011 5.89161 19.8727C4.04347 17.1661 2.60491 12.2522 4.53298 8.90632C5.44207 7.27834 7.13037 6.23963 8.9985 6.1797C9.80316 6.1627 10.5757 6.47348 11.2523 6.74566C11.7685 6.95332 12.2288 7.13851 12.6049 7.13851C12.9335 7.13851 13.3787 6.96208 13.8983 6.75615C14.7217 6.42986 15.7318 6.02953 16.7608 6.13975C18.3492 6.18969 19.8277 6.9887 20.7468 8.29707Z" fill="#1F2026"/>
</g>
<defs>
<clipPath id="clip0_1_26907">
<rect width="24" height="24" fill="#1F2026" transform="translate(0.617554 0.121094)"/>
</clipPath>
</defs>
</svg>
