<svg width="17" height="17" viewBox="0 0 17 17" fill="none" xmlns="http://www.w3.org/2000/svg">
<g clip-path="url(#clip0_1_18619)">
<path d="M8.61755 11.3866C8.82469 11.3806 9.01409 11.3031 9.16802 11.1361L12.9163 7.25796C13.0466 7.12675 13.1176 6.95976 13.1176 6.76294C13.1176 6.36932 12.8098 6.05322 12.4192 6.05322C12.2298 6.05322 12.0462 6.13076 11.9101 6.26793L8.62349 9.68682L5.32499 6.26793C5.18886 6.13672 5.01129 6.05322 4.81597 6.05322C4.42533 6.05322 4.11755 6.36932 4.11755 6.76294C4.11755 6.95976 4.18858 7.12675 4.31879 7.25796L8.07302 11.1361C8.23282 11.3031 8.41042 11.3866 8.61755 11.3866Z" fill="#7E818C"/>
</g>
<defs>
<clipPath id="clip0_1_18619">
<rect width="16" height="16" fill="white" transform="translate(0.617554 0.719849)"/>
</clipPath>
</defs>
</svg>
